<svg width="100%" height="100%" viewBox="0 0 262.5 262.5" xml:space="preserve" xmlns="http://www.w3.org/2000/svg">
    <g style="display:inline">
        <path style="display:inline;fill:#000;stroke-width:.264583"
            d="M94.172 98.803c-.327.015-.68.08-1.057.173-2.01.503-6.03 12.728-8.541 19.092-2.08 5.27-5.284 17.251-6.372 21.394-.053.07-.11.137-.16.21 0 0-6.196 2.512-8.54 10.55-2.345 8.04-1.51 14.953 3.013 20.433 4.355 5.275 9.796 11.531 31.15 12.895 13.236.845 18.925-.837 23.28-4.69 4.353-3.851 8.373-7.703 5.526-22.106-.041-.209-.158-.399-.25-.6 2.086-8.098 5.519-34.585 6.614-41.938 1.172-7.87-.168-6.531-1.507-6.531-1.34 0-8.876 9.88-11.054 12.058-1.88 1.88-12.01 17.25-14.873 21.614-4.105-1.64-8.398-2.987-12.513-3.903-.402-5.799-2.107-30.403-2.256-34.29-.136-3.539-1.046-4.423-2.46-4.36z"
            transform="translate(-133.145 -227.763) scale(2.5262)" />
        <path style="fill:#fff;stroke-width:.264583"
            d="M74.368 157.145c-.076-2.075 1.185-5.684 8.645-8.171 7.46-2.487 8.526 6.394 8.29 10.658-.237 4.263 0 9.236-6.158 8.052-6.158-1.184-10.675-7.786-10.777-10.54z"
            transform="translate(-133.145 -227.763) scale(2.5262)" />
        <path style="fill:#fff;stroke-width:.264586"
            d="M121.694 170.566c1.417-1.518 2.829-5.07-1.179-11.837-4.008-6.766-10.631-.754-13.245 2.622-2.614 3.376-6.051 6.98-.623 10.119 5.429 3.139 13.167 1.11 15.047-.904z"
            transform="translate(-133.145 -227.763) scale(2.5262)" />
    </g>
    <path style="fill:#fff;stroke:#000;stroke-width:2.265;stroke-linecap:round;stroke-dasharray:none;stroke-opacity:1"
        d="m111.62 160.606-1.256 9.002M86.475 155.226l-1.256 9.001"
        transform="translate(-133.145 -227.763) scale(2.5262)" />
</svg>